<svg width="32" height="32" viewBox="0 0 32 32" fill="none" xmlns="http://www.w3.org/2000/svg">
<rect width="32" height="32" rx="8" fill="#FEDB00"/>
<path fill-rule="evenodd" clip-rule="evenodd" d="M22.3865 10.0909L5.66172 10.0909C4.21929 10.0909 3.48242 11.8217 4.48218 12.8615L13.4886 22.2282C14.5617 23.3442 16.3474 23.3442 17.4205 22.2282L27.3149 11.938C27.8457 11.386 27.6423 10.5418 27.0518 10.2209L16.3418 20.9309C15.6797 21.593 14.6063 21.593 13.9442 20.9309C13.2821 20.2688 13.2821 19.1953 13.9442 18.5333L22.3865 10.0909Z" fill="black"/>
<path d="M14.1511 19.5032C14.0583 19.4109 14.0649 19.2539 14.1657 19.1527L23.1463 10.1276L23.8471 10.0967L23.4822 10.4617L14.5015 19.4868C14.4007 19.5881 14.2438 19.5954 14.1511 19.5032Z" fill="black"/>
<path d="M14.8018 20.1059C14.709 20.0137 14.7208 19.8514 14.8281 19.7436L24.3894 10.135L25.1137 10.0804L24.7253 10.4692L15.164 20.0778C15.0567 20.1856 14.8945 20.1982 14.8018 20.1059Z" fill="black"/>
<path d="M15.5235 20.6369C15.4308 20.5447 15.447 20.378 15.5597 20.2647L25.6062 10.1685L26.3501 10.0942L25.942 10.5027L15.8956 20.5989C15.7828 20.7122 15.6162 20.7292 15.5235 20.6369Z" fill="black"/>
</svg>
